<svg width="175" height="44" viewBox="0 0 175 44" fill="none" xmlns="http://www.w3.org/2000/svg">
  <title>PowerFilm VIP Blue Edition</title>
  
  <!-- ICON BACKGROUND (Deep Charcoal) -->
  <circle cx="22" cy="22" r="22" fill="#0F1720"/>
  
  <!-- THE REEL / POWER ICON (VIP Blue) -->
  <path d="M14 10.2c-3.5 2.8-5.5 7-5.5 11.8 0 7.5 6 13.5 13.5 13.5s13.5-6 13.5-13.5c0-4.8-2-9-5.5-11.8" 
        stroke="#0f9efb" stroke-width="3" stroke-linecap="round"/>
  
  <!-- THE "1" SPOKE / POWER STEM -->
  <path d="M22 6.5V18m-3.5-8L22 6.5" stroke="#0f9efb" stroke-width="3" stroke-linecap="round"/>
  
  <!-- CENTER PLAY TRIANGLE -->
  <path d="M19.5 18.5l8 4.5-8 4.5v-9z" fill="#0f9efb"/>
  <!-- Separation stroke for clarity -->
  <path d="M19.5 18.5l8 4.5-8 4.5v-9z" stroke="#0F1720" stroke-width="0.8" stroke-linejoin="round"/>

  <!-- SPROCKET HOLE DETAILS -->
  <circle cx="13" cy="27" r="1.2" fill="#0f9efb"/>
  <circle cx="22" cy="31.5" r="1.2" fill="#0f9efb"/>
  <circle cx="31" cy="27" r="1.2" fill="#0f9efb"/>

  <!-- CINEMATIC TAIL -->
  <path d="M33.5 38.5c2-1.3 9.5-3.5 16-1" stroke="#0f9efb" stroke-width="3" stroke-linecap="round" stroke-linejoin="round"/>

  <!-- BRAND NAME: "PowerFilm" (Professional White Typography) -->
  <g fill="white">
    <!-- P -->
    <path d="M52 11.4h7.4c3.5 0 5.8 2.1 5.8 5.3s-2.3 5.3-5.8 5.3h-3.6V32H52V11.4zm3.8 7.3h3.4c1.5 0 2.2-.7 2.2-2s-.7-2-2.2-2h-3.4v4z"/>
    <!-- o -->
    <path d="M71.4 32.3c-4 0-6.5-3-6.5-6.8s2.5-6.8 6.5-6.8 6.5 3 6.5 6.8-2.5 6.8-6.5 6.8zm0-3.2c2.2 0 3.2-1.6 3.2-3.6s-1-3.6-3.2-3.6-3.2 1.6-3.2 3.6 1 3.6 3.2 3.6z"/>
    <!-- w -->
    <path d="M79.4 19.1h3.5l2.3 9.4 2.7-9.4h3.3l2.7 9.4 2.3-9.4h3.5L95.7 32h-3.5l-2.7-9.5L86.8 32h-3.5l-3.9-12.9z"/>
    <!-- e -->
    <path d="M105.9 32.3c-3.5 0-6-2.8-6-6.8s2.5-6.8 6-6.8 5.8 2.6 5.8 6.4v1.2h-8.5c.2 1.9 1.2 3 2.9 3 1.3 0 2.2-.6 2.6-1.6l2.8.6c-.8 2.4-2.7 4-5.6 4zm-2.7-8.5h5.2c-.2-1.5-1-2.2-2.5-2.2s-2.4.7-2.7 2.2z"/>
    <!-- r -->
    <path d="M113.4 19.1h3.3v3.3c.6-2.1 2.3-3.7 4.5-3.7v3.5c-2.3 0-4.5 1.6-4.5 4.9V32h-3.3V19.1z"/>
    <!-- F -->
    <path d="M125.4 11.4h9.5v3.2h-6.1v5.2h5.4v3.2h-5.4V32h-3.4V11.4z"/>
    <!-- i -->
    <path d="M137.9 13.5c0-1.2.9-2.1 2-2.1s2 .9 2 2.1-.9 2.1-2 2.1-2-.9-2-2.1zm.2 5.6h3.6V32h-3.6V19.1z"/>
    <!-- l -->
    <path d="M143.4 9h3.6v23h-3.6V9z"/>
    <!-- m (The fixed spacing version from your correction) -->
    <path d="M149.4 19.1h3.4v2.5c.8-2 2.6-3.1 4.8-3.1 2 0 3.4.9 4 2.5.8-1.6 2.6-2.5 4.6-2.5 2.4 0 3.8 2 3.8 5.3V32h-3.6v-7.5c0-1.7-.7-2.6-2.1-2.6-1.6 0-2.6 1.1-2.6 2.9V32h-3.6v-7.5c0-1.7-.7-2.6-2.1-2.6-1.6 0-2.6 1.1-2.6 2.9V32h-3.5V19.1z"/>
  </g>
</svg>